<?xml version="1.0" standalone="no"?><!DOCTYPE svg PUBLIC "-//W3C//DTD SVG 1.1//EN" "http://www.w3.org/Graphics/SVG/1.1/DTD/svg11.dtd"><svg t="1599736769748" class="icon" viewBox="0 0 1024 1024" version="1.1" xmlns="http://www.w3.org/2000/svg" p-id="21933" xmlns:xlink="http://www.w3.org/1999/xlink" width="200" height="200"><defs><style type="text/css"></style></defs><path d="M839.68 293.546667a187.733333 187.733333 0 0 0-141.226667-13.653334 186.453333 186.453333 0 0 0-372.48 0 191.146667 191.146667 0 0 0-141.226666 12.373334 186.453333 186.453333 0 0 0 26.026666 341.333333 187.733333 187.733333 0 0 0-34.133333 106.666667 213.333333 213.333333 0 0 0 2.986667 32 185.173333 185.173333 0 0 0 183.04 154.88 199.68 199.68 0 0 0 27.306666 0A188.586667 188.586667 0 0 0 512 853.333333a188.586667 188.586667 0 0 0 122.026667 72.106667 199.68 199.68 0 0 0 27.306666 0 186.026667 186.026667 0 0 0 151.893334-293.12 186.026667 186.026667 0 0 0 26.453333-341.333333z m-398.506667-82.773334a102.4 102.4 0 0 1 141.653334 0 103.68 103.68 0 0 1 22.186666 113.493334l-11.093333 25.173333-28.16 24.746667A173.653333 173.653333 0 0 0 512 364.8a170.666667 170.666667 0 0 0-68.693333 14.506667L419.413333 324.266667a101.973333 101.973333 0 0 1 21.76-113.493334z m-260.266666 291.84A101.12 101.12 0 0 1 338.773333 384l20.906667 18.346667 14.933333 34.133333A167.253333 167.253333 0 0 0 341.333333 535.466667 121.6 121.6 0 0 0 341.333333 554.666667h-23.466666l-35.84 3.413333a101.12 101.12 0 0 1-101.12-55.466667z m281.6 259.413334a101.546667 101.546667 0 0 1-198.826667-3.413334 130.986667 130.986667 0 0 1 0-17.92 99.413333 99.413333 0 0 1 49.92-85.333333l21.76-15.36 38.826667-4.266667a170.666667 170.666667 0 0 0 101.546666 66.986667zM512 620.8a85.333333 85.333333 0 1 1 85.333333-85.333333 85.333333 85.333333 0 0 1-85.333333 85.333333z m248.32 137.386667a100.693333 100.693333 0 0 1-114.346667 82.773333 101.973333 101.973333 0 0 1-85.333333-78.933333l-5.973333-25.6 8.96-39.253334a170.666667 170.666667 0 0 0 93.866666-75.093333l21.333334 12.8H682.666667l28.16 16.64a101.546667 101.546667 0 0 1 49.493333 106.666667z m82.773333-256a101.973333 101.973333 0 0 1-90.88 56.746666h-10.24l-27.306666-4.266666-32-17.493334a170.666667 170.666667 0 0 0-42.666667-112.64l18.346667-15.786666 26.88-24.746667a101.12 101.12 0 0 1 157.866666 120.32z" p-id="21934" fill="#ffffff"></path></svg>